<?xml version="1.0" encoding="UTF-8" standalone="no"?>
<svg width="300" height="300" viewBox="0 0 300 300" fill="none" xmlns="http://www.w3.org/2000/svg">
  <rect width="300" height="300" fill="#F3F4F6"/>
  <path d="M150 125C137.574 125 127.5 135.074 127.5 147.5C127.5 159.926 137.574 170 150 170C162.426 170 172.5 159.926 172.5 147.5C172.5 135.074 162.426 125 150 125ZM150 162.5C141.716 162.5 135 155.784 135 147.5C135 139.216 141.716 132.5 150 132.5C158.284 132.5 165 139.216 165 147.5C165 155.784 158.284 162.5 150 162.5Z" fill="#9CA3AF"/>
  <path d="M185.625 105H114.375C108.849 105 104.375 109.474 104.375 115V185C104.375 190.526 108.849 195 114.375 195H185.625C191.151 195 195.625 190.526 195.625 185V115C195.625 109.474 191.151 105 185.625 105ZM114.375 112.5H185.625C186.998 112.5 188.125 113.627 188.125 115V156.219L173.438 141.531C172.5 140.594 171.188 140.125 169.875 140.125C168.562 140.125 167.25 140.594 166.312 141.531L143.438 164.406L133.125 154.094C131.25 152.219 128.125 152.219 126.25 154.094L111.875 168.469V115C111.875 113.627 113.002 112.5 114.375 112.5ZM185.625 187.5H114.375C113.002 187.5 111.875 186.373 111.875 185V179.219L129.688 161.406L140 171.719C141.875 173.594 144.999 173.594 146.875 171.719L169.75 148.844L188.125 167.219V185C188.125 186.373 186.998 187.5 185.625 187.5Z" fill="#9CA3AF"/>
  <text x="150" y="225" font-family="Arial" font-size="16" text-anchor="middle" fill="#6B7280">Image not available</text>
</svg>
